<?xml version="1.0" encoding="utf-8"?>
<!-- Generator: Adobe Illustrator 17.0.0, SVG Export Plug-In . SVG Version: 6.00 Build 0)  -->
<!DOCTYPE svg PUBLIC "-//W3C//DTD SVG 1.1//EN" "http://www.w3.org/Graphics/SVG/1.1/DTD/svg11.dtd">
<svg version="1.1" id="Layer_1" xmlns="http://www.w3.org/2000/svg" xmlns:xlink="http://www.w3.org/1999/xlink" x="0px" y="0px"
	 width="60px" height="50px" viewBox="0 0 60 50" enable-background="new 0 0 60 50" xml:space="preserve">
<path fill="#3F3F41" d="M54.421,16.461c-1.878,0-3.402,1.54-3.402,3.432c0,1.892,1.524,3.434,3.402,3.434
	c1.872,0,3.397-1.542,3.397-3.434C57.818,18.001,56.292,16.461,54.421,16.461z M5.585,16.461c-1.878,0-3.403,1.54-3.403,3.432
	c0,1.892,1.524,3.434,3.403,3.434c1.872,0,3.398-1.542,3.398-3.434C8.983,18.001,7.457,16.461,5.585,16.461z M44.315,10.214
	c-2.789,0-5.052,2.289-5.052,5.114c0,2.813,2.262,5.102,5.052,5.102c2.79,0,5.059-2.289,5.059-5.102
	C49.374,12.507,47.097,10.214,44.315,10.214z M60,41.293h-5.759V30.574c0-1.842-0.539-3.551-1.395-5.04
	c0.506-0.15,1.022-0.257,1.575-0.257c3.071,0,5.579,2.535,5.579,5.647V41.293z M15.689,10.214c-2.79,0-5.059,2.289-5.059,5.114
	c0,2.813,2.27,5.102,5.059,5.102c2.782,0,5.052-2.289,5.052-5.102C20.74,12.507,18.47,10.214,15.689,10.214z M5.585,25.277
	c0.55,0,1.062,0.107,1.568,0.257c-0.867,1.489-1.394,3.198-1.394,5.04v10.718H0V30.925C0,27.812,2.508,25.277,5.585,25.277z
	 M29.996,0c-4.119,0-7.475,3.389-7.475,7.555c0,4.168,3.352,7.561,7.475,7.561c4.122,0,7.476-3.393,7.476-7.561
	C37.476,3.389,34.118,0,29.996,0z M52.39,45.281h-8.826V28.974c0-2.243-0.582-4.327-1.533-6.198c0.723-0.216,1.482-0.37,2.276-0.37
	c4.453,0,8.083,3.66,8.083,8.168V45.281z M16.425,28.974v16.307H7.61V30.574c0-4.505,3.624-8.168,8.083-8.168
	c0.794,0,1.546,0.154,2.265,0.37C17.01,24.647,16.425,26.732,16.425,28.974z M18.275,50h23.438V28.974
	c0-6.533-5.26-11.849-11.718-11.849c-6.467,0-11.721,5.316-11.721,11.849V50z"/>
</svg>
