<?xml version="1.0" encoding="utf-8"?>
<!-- Generator: Adobe Illustrator 17.0.0, SVG Export Plug-In . SVG Version: 6.00 Build 0)  -->
<!DOCTYPE svg PUBLIC "-//W3C//DTD SVG 1.1//EN" "http://www.w3.org/Graphics/SVG/1.1/DTD/svg11.dtd">
<svg version="1.1" id="Layer_1" xmlns="http://www.w3.org/2000/svg" xmlns:xlink="http://www.w3.org/1999/xlink" x="0px" y="0px"
	 width="28px" height="28px" viewBox="0 0 28 28" enable-background="new 0 0 28 28" xml:space="preserve">
<g>
	<g>
		<defs>
			<rect id="SVGID_1_" width="28" height="28"/>
		</defs>
		<clipPath id="SVGID_2_">
			<use xlink:href="#SVGID_1_"  overflow="visible"/>
		</clipPath>
		<path clip-path="url(#SVGID_2_)" fill="#3F3F41" d="M0.028,3.318c0-0.818,0.305-1.614,0.859-2.221
			c0.62-0.679,1.502-1.069,2.421-1.069h4.405c1.672,0,3.073,1.248,3.259,2.902c0.11,0.974,0.31,1.941,0.596,2.875
			c0.357,1.169,0.047,2.428-0.81,3.285l-1.785,1.785c1.87,3.418,4.72,6.269,8.137,8.139l1.785-1.785
			c0.857-0.857,2.116-1.167,3.285-0.81c0.934,0.286,1.901,0.486,2.874,0.596c1.654,0.186,2.902,1.588,2.902,3.259v4.405
			c0,0.919-0.39,1.802-1.069,2.422c-0.682,0.622-1.601,0.93-2.522,0.846c-3.16-0.291-6.212-1.129-9.07-2.49
			c-2.779-1.323-5.295-3.102-7.479-5.286c-2.184-2.184-3.963-4.701-5.286-7.48c-1.361-2.858-2.199-5.91-2.49-9.071
			C0.033,3.519,0.028,3.419,0.028,3.318L0.028,3.318z M9.532,6.776"/>
	</g>
</g>
</svg>
