<?xml version="1.0" encoding="utf-8"?>
<!-- Generator: Adobe Illustrator 17.0.0, SVG Export Plug-In . SVG Version: 6.00 Build 0)  -->
<!DOCTYPE svg PUBLIC "-//W3C//DTD SVG 1.1//EN" "http://www.w3.org/Graphics/SVG/1.1/DTD/svg11.dtd">
<svg version="1.1" id="Layer_1" xmlns="http://www.w3.org/2000/svg" xmlns:xlink="http://www.w3.org/1999/xlink" x="0px" y="0px"
	 width="16px" height="21px" viewBox="0 0 16 21" enable-background="new 0 0 16 21" xml:space="preserve">
<path fill = "#3F3F41" d="M10.532,8.643c1.299-0.836,2.162-2.29,2.162-3.949C12.694,2.101,10.592,0,8,0C5.408,0,3.307,2.101,3.307,4.694
	c0,1.659,0.862,3.114,2.162,3.949C2.408,8.917,0,11.496,0,14.628v4.872l0.012,0.077l0.336,0.104C3.51,20.67,6.257,21,8.519,21
	c4.416,0,6.976-1.26,7.135-1.34l0.314-0.16H16v-4.872C16,11.497,13.593,8.918,10.532,8.643z"/>
</svg>
