<?xml version="1.0" encoding="utf-8"?>
<!-- Generator: Adobe Illustrator 17.0.0, SVG Export Plug-In . SVG Version: 6.00 Build 0)  -->
<!DOCTYPE svg PUBLIC "-//W3C//DTD SVG 1.1//EN" "http://www.w3.org/Graphics/SVG/1.1/DTD/svg11.dtd">
<svg version="1.1" id="Layer_1" xmlns="http://www.w3.org/2000/svg" xmlns:xlink="http://www.w3.org/1999/xlink" x="0px" y="0px"
	 width="52px" height="50px" viewBox="0 0 52 50" enable-background="new 0 0 52 50" xml:space="preserve">
<path fill = "#3F3F41" d="M51.136,21.299l-13.546,9.91l5.175,16.033c0.281,0.868-0.027,1.819-0.758,2.356c-0.367,0.267-0.8,0.401-1.231,0.401
	c-0.433,0-0.864-0.134-1.229-0.401L26,39.689l-13.544,9.909c-0.736,0.537-1.728,0.537-2.462,0c-0.732-0.537-1.04-1.487-0.759-2.355
	l5.174-16.035L0.864,21.299c-0.734-0.537-1.041-1.487-0.761-2.356c0.281-0.868,1.086-1.456,1.991-1.456h16.743L24.01,1.456
	C24.291,0.587,25.093,0,26.002,0c0.906,0,1.709,0.587,1.989,1.456l5.173,16.032h16.744c0.906,0,1.71,0.588,1.992,1.456
	C52.176,19.813,51.869,20.763,51.136,21.299z"/>
</svg>
