<?xml version="1.0" encoding="utf-8"?>
<!-- Generator: Adobe Illustrator 17.0.0, SVG Export Plug-In . SVG Version: 6.00 Build 0)  -->
<!DOCTYPE svg PUBLIC "-//W3C//DTD SVG 1.1//EN" "http://www.w3.org/Graphics/SVG/1.1/DTD/svg11.dtd">
<svg version="1.1" id="Layer_1" xmlns="http://www.w3.org/2000/svg" xmlns:xlink="http://www.w3.org/1999/xlink" x="0px" y="0px"
	 width="46px" height="46px" viewBox="0 0 46 46" enable-background="new 0 0 46 46" xml:space="preserve">
<g>
	<path fill="#88888a" d="M44.737,38.638L34.182,28.086c-1.572,2.444-3.652,4.525-6.098,6.098l10.554,10.553c1.685,1.685,4.416,1.685,6.099,0
		C46.421,43.055,46.421,40.323,44.737,38.638z"/>
	<path fill="#88888a" d="M34.5,17.251C34.5,7.723,26.776,0,17.25,0C7.724,0,0,7.723,0,17.251C0,26.777,7.724,34.5,17.25,34.5
		C26.776,34.5,34.5,26.777,34.5,17.251z M17.25,30.188c-7.134,0-12.938-5.804-12.938-12.937c0-7.134,5.803-12.939,12.938-12.939
		c7.134,0,12.938,5.804,12.938,12.939C30.188,24.383,24.384,30.188,17.25,30.188z"/>
	<!-- <path fill="#88888a" d="M7.187,17.251h2.875c0-3.963,3.225-7.188,7.187-7.188V7.188C11.702,7.188,7.187,11.701,7.187,17.251z"/> -->
</g>
</svg>
