<?xml version="1.0" encoding="utf-8"?>
<!-- Generator: Adobe Illustrator 17.0.0, SVG Export Plug-In . SVG Version: 6.00 Build 0)  -->
<!DOCTYPE svg PUBLIC "-//W3C//DTD SVG 1.1//EN" "http://www.w3.org/Graphics/SVG/1.1/DTD/svg11.dtd">
<svg version="1.1" id="Layer_1" xmlns="http://www.w3.org/2000/svg" xmlns:xlink="http://www.w3.org/1999/xlink" x="0px" y="0px"
	 width="21px" height="21px" viewBox="0 0 21 21" enable-background="new 0 0 21 21" xml:space="preserve">
<path fill = "#3F3F41" d="M18.114,8.092l-0.53-1.286c0,0,1.234-2.842,1.124-2.951l-1.632-1.628c-0.114-0.113-2.897,1.185-2.897,1.185l-1.284-0.53
	c0,0-1.134-2.88-1.29-2.88H9.3C9.14,0,8.09,2.888,8.09,2.888l-1.282,0.53c0,0-2.842-1.233-2.951-1.124l-1.63,1.631
	C2.114,4.037,3.411,6.822,3.411,6.822l-0.53,1.284c0,0-2.881,1.134-2.881,1.287V11.7c0,0.161,2.888,1.212,2.888,1.212l0.53,1.282
	c0,0-1.233,2.84-1.126,2.95l1.633,1.632c0.11,0.111,2.895-1.187,2.895-1.187l1.286,0.532c0,0,1.134,2.879,1.291,2.879h2.304
	c0.16,0,1.211-2.888,1.211-2.888l1.286-0.531c0,0,2.837,1.234,2.946,1.126l1.633-1.631c0.113-0.113-1.187-2.897-1.187-2.897
	l0.529-1.284c0,0,2.883-1.136,2.883-1.291V9.299C21,9.139,18.114,8.092,18.114,8.092z M13.867,10.499
	c0,1.855-1.51,3.367-3.366,3.367c-1.854,0-3.367-1.511-3.367-3.367c0-1.854,1.512-3.363,3.367-3.363
	C12.357,7.137,13.867,8.644,13.867,10.499z"/>
</svg>
