<?xml version="1.0" encoding="utf-8"?>
<!-- Generator: Adobe Illustrator 17.0.0, SVG Export Plug-In . SVG Version: 6.00 Build 0)  -->
<!DOCTYPE svg PUBLIC "-//W3C//DTD SVG 1.1//EN" "http://www.w3.org/Graphics/SVG/1.1/DTD/svg11.dtd">
<svg version="1.1" id="Layer_1" xmlns="http://www.w3.org/2000/svg" xmlns:xlink="http://www.w3.org/1999/xlink" x="0px" y="0px"
	 width="39px" height="27px" viewBox="0 0 39 27" enable-background="new 0 0 39 27" xml:space="preserve">
<g>
	<path fill="#726B65" d="M39,3.5C39,5.433,37.433,7,35.5,7h-32C1.567,7,0,5.433,0,3.5l0,0C0,1.567,1.567,0,3.5,0h32
		C37.433,0,39,1.567,39,3.5L39,3.5z"/>
	<path fill="#726B65" d="M39,13.5c0,1.933-1.567,3.5-3.5,3.5h-32C1.567,17,0,15.433,0,13.5l0,0C0,11.567,1.567,10,3.5,10h32
		C37.433,10,39,11.567,39,13.5L39,13.5z"/>
	<path fill="#726B65" d="M39,23.5c0,1.933-1.567,3.5-3.5,3.5h-32C1.567,27,0,25.433,0,23.5l0,0C0,21.567,1.567,20,3.5,20h32
		C37.433,20,39,21.567,39,23.5L39,23.5z"/>
</g>
</svg>
